<svg width="140" height="74" viewBox="0 0 140 74" fill="none" xmlns="http://www.w3.org/2000/svg">
<g clip-path="url(#clip0_27_5)">
<path d="M17.1986 24.7978H6.9703L6.91561 18.8358H15.3663C16.8613 18.8358 18.0738 18.6535 19.0036 18.2889C19.9517 17.9242 20.6445 17.3955 21.0821 16.7026C21.5197 15.9916 21.7385 15.1164 21.7385 14.0772C21.7385 12.8921 21.5197 11.9349 21.0821 11.2056C20.6445 10.4763 19.9517 9.94757 19.0036 9.61939C18.0738 9.27298 16.8705 9.09977 15.3936 9.09977H10.1974V42H1.28182V2.1806H15.3936C17.7821 2.1806 19.9153 2.39939 21.7932 2.83696C23.6711 3.27454 25.2664 3.94914 26.5792 4.86075C27.9101 5.77237 28.922 6.91189 29.6149 8.27931C30.3077 9.64674 30.6541 11.2603 30.6541 13.12C30.6541 14.7427 30.2894 16.256 29.5602 17.6598C28.8491 19.0637 27.7005 20.2033 26.1142 21.0784C24.528 21.9536 22.404 22.4276 19.742 22.5005L17.1986 24.7978ZM16.8431 42H4.70038L7.9275 35.1082H16.8431C18.2105 35.1082 19.3227 34.8894 20.1796 34.4518C21.0365 34.0142 21.6656 33.4217 22.0667 32.6742C22.4678 31.9266 22.6683 31.088 22.6683 30.1581C22.6683 29.0642 22.4769 28.1161 22.094 27.3139C21.7294 26.5116 21.1459 25.8917 20.3437 25.4542C19.5597 25.0166 18.5114 24.7978 17.1986 24.7978H9.21288L9.26758 18.8358H19.031L21.1095 21.1878C23.6438 21.1331 25.6676 21.5433 27.1808 22.4185C28.7124 23.2754 29.8154 24.4058 30.49 25.8097C31.1646 27.2136 31.5019 28.6995 31.5019 30.2675C31.5019 32.8565 30.9458 35.0261 29.8336 36.7764C28.7215 38.5085 27.0714 39.8121 24.8836 40.6873C22.7139 41.5624 20.0338 42 16.8431 42ZM47.9821 42.547C45.6301 42.547 43.5243 42.1732 41.6646 41.4257C39.8049 40.6782 38.2278 39.648 36.9333 38.3353C35.657 37.0043 34.6816 35.4728 34.007 33.7408C33.3324 32.0087 32.9951 30.1581 32.9951 28.189V27.1498C32.9951 24.9437 33.3051 22.9108 33.925 21.0511C34.5449 19.1914 35.4474 17.5778 36.6325 16.2104C37.8358 14.8247 39.3126 13.7581 41.0629 13.0106C42.8132 12.2448 44.8097 11.862 47.0523 11.862C49.149 11.862 51.0178 12.2084 52.6587 12.9012C54.2996 13.5758 55.6853 14.5512 56.8157 15.8275C57.9461 17.0855 58.803 18.6079 59.3864 20.3947C59.9881 22.1632 60.2889 24.1506 60.2889 26.3567V29.8573H36.441V24.3602H51.9203V23.7039C51.9203 22.6646 51.7288 21.753 51.346 20.969C50.9813 20.185 50.4343 19.5834 49.7051 19.164C48.994 18.7264 48.0915 18.5076 46.9976 18.5076C45.9583 18.5076 45.0923 18.7264 44.3994 19.164C43.7066 19.6016 43.1505 20.2215 42.7312 21.0237C42.3301 21.8077 42.0384 22.7284 41.856 23.7859C41.6737 24.8251 41.5826 25.9464 41.5826 27.1498V28.189C41.5826 29.3376 41.7375 30.386 42.0475 31.3341C42.3574 32.2822 42.8132 33.0935 43.4149 33.7681C44.0166 34.4427 44.7459 34.9714 45.6028 35.3543C46.4597 35.7372 47.4351 35.9286 48.5291 35.9286C49.8783 35.9286 51.1636 35.6734 52.3852 35.1629C53.6068 34.6341 54.6642 33.8137 55.5576 32.7015L59.5505 37.2687C58.9488 38.1439 58.101 38.9917 57.0071 39.8121C55.9314 40.6143 54.6369 41.2707 53.1236 41.7812C51.6103 42.2917 49.8965 42.547 47.9821 42.547ZM70.1781 38.5814L77.9178 12.4089H87.1068L75.2103 46.4305C74.955 47.178 74.6086 47.9802 74.171 48.8371C73.7517 49.694 73.1773 50.5145 72.4481 51.2985C71.737 52.0825 70.8254 52.7206 69.7132 53.2129C68.601 53.7052 67.2336 53.9513 65.6109 53.9513C64.7905 53.9513 64.1523 53.9057 63.6965 53.8145C63.259 53.7416 62.6755 53.614 61.9462 53.4317L61.9189 47.2236C62.1559 47.2236 62.3656 47.2236 62.5479 47.2236C62.7485 47.2418 62.949 47.2509 63.1496 47.2509C64.1706 47.2509 64.991 47.1415 65.6109 46.9227C66.2491 46.7039 66.7413 46.3758 67.0878 45.9382C67.4524 45.5188 67.7441 44.981 67.9629 44.3246L70.1781 38.5814ZM67.58 12.4089L73.7061 33.4673L74.7453 42.5196L68.9748 42.8205L58.3909 12.4089H67.58ZM110.998 35.3543V42H88.2992V35.3543H110.998ZM110.643 17.1676L91.9639 42H86.1661V37.0773L104.79 12.4089H110.643V17.1676ZM107.717 12.4089V19.0546H86.6583V12.4089H107.717ZM128.655 34.9441V22.2544C128.655 21.361 128.518 20.5952 128.244 19.9571C127.971 19.319 127.543 18.8176 126.959 18.453C126.376 18.0883 125.619 17.906 124.689 17.906C123.905 17.906 123.221 18.0427 122.638 18.3162C122.073 18.5897 121.635 18.9817 121.325 19.4922C121.034 20.0027 120.888 20.6317 120.888 21.3792H112.355C112.355 20.0483 112.656 18.8085 113.257 17.6598C113.859 16.5112 114.716 15.4993 115.828 14.6242C116.959 13.749 118.308 13.0744 119.876 12.6004C121.444 12.1081 123.203 11.862 125.154 11.862C127.47 11.862 129.53 12.254 131.335 13.038C133.158 13.8037 134.598 14.9615 135.656 16.5112C136.713 18.0427 137.242 19.9754 137.242 22.3091V34.698C137.242 36.4847 137.342 37.8886 137.543 38.9096C137.762 39.9124 138.072 40.7876 138.473 41.5351V42H129.858C129.457 41.1431 129.156 40.0856 128.956 38.8276C128.755 37.5513 128.655 36.2568 128.655 34.9441ZM129.721 23.95L129.776 28.6539H125.537C124.589 28.6539 123.768 28.7724 123.076 29.0095C122.401 29.2465 121.854 29.5747 121.435 29.994C121.015 30.3951 120.705 30.8692 120.505 31.4161C120.323 31.9449 120.231 32.5283 120.231 33.1664C120.231 33.7681 120.377 34.3151 120.669 34.8073C120.961 35.2814 121.362 35.6552 121.872 35.9286C122.383 36.2021 122.975 36.3389 123.65 36.3389C124.762 36.3389 125.71 36.1201 126.494 35.6825C127.296 35.2449 127.916 34.7162 128.354 34.0963C128.791 33.4582 129.01 32.8656 129.01 32.3186L131.061 35.8739C130.733 36.6032 130.332 37.3599 129.858 38.1439C129.384 38.9096 128.782 39.6298 128.053 40.3044C127.324 40.9608 126.439 41.4986 125.4 41.918C124.379 42.3373 123.149 42.547 121.708 42.547C119.848 42.547 118.162 42.1732 116.649 41.4257C115.135 40.6599 113.923 39.6116 113.011 38.2806C112.118 36.9496 111.671 35.4181 111.671 33.6861C111.671 32.1363 111.954 30.7598 112.519 29.5564C113.084 28.3531 113.932 27.3321 115.062 26.4934C116.211 25.6547 117.651 25.0257 119.384 24.6064C121.116 24.1688 123.139 23.95 125.455 23.95H129.721Z" fill="black"/>
<path d="M7.64078 53.0651V71H1.04428V48.1968H7.24035L7.64078 53.0651ZM6.7767 58.7975L5.13284 58.8397C5.13284 57.1256 5.34359 55.5871 5.7651 54.2242C6.1866 52.8614 6.78372 51.7023 7.55648 50.7469C8.34328 49.7774 9.27761 49.0398 10.3595 48.534C11.4554 48.0282 12.6637 47.7753 13.9844 47.7753C15.0522 47.7753 16.0287 47.9298 16.9138 48.2389C17.799 48.548 18.5577 49.0468 19.1899 49.7353C19.8362 50.4097 20.328 51.3089 20.6652 52.4329C21.0024 53.5428 21.171 54.9127 21.171 56.5425V71H14.5534V56.5214C14.5534 55.566 14.4199 54.8284 14.153 54.3085C13.886 53.7887 13.4926 53.4234 12.9728 53.2126C12.467 53.0019 11.8488 52.8965 11.1182 52.8965C10.3454 52.8965 9.68506 53.0511 9.13711 53.3602C8.58916 53.6552 8.13955 54.0697 7.7883 54.6036C7.43705 55.1375 7.17713 55.7627 7.00853 56.4793C6.85397 57.1958 6.7767 57.9686 6.7767 58.7975ZM36.6949 65.4994V48.1968H43.3124V71H37.1164L36.6949 65.4994ZM37.3903 60.8418L39.2028 60.7997C39.2028 62.3311 39.0201 63.7432 38.6548 65.0358C38.3036 66.3284 37.7697 67.4524 37.0531 68.4078C36.3506 69.3632 35.4725 70.1078 34.4188 70.6417C33.3791 71.1616 32.1637 71.4215 30.7728 71.4215C29.6488 71.4215 28.6161 71.267 27.6747 70.9578C26.7474 70.6347 25.9466 70.1359 25.2722 69.4615C24.5978 68.7731 24.0779 67.8949 23.7126 66.8271C23.3473 65.7453 23.1647 64.4527 23.1647 62.9493V48.1968H29.7401V62.9915C29.7401 63.5816 29.8103 64.0874 29.9508 64.5089C30.1054 64.9163 30.3091 65.2535 30.562 65.5205C30.829 65.7874 31.1521 65.9841 31.5315 66.1106C31.9249 66.237 32.3534 66.3003 32.8171 66.3003C33.9832 66.3003 34.8965 66.0614 35.5568 65.5837C36.2312 65.092 36.7019 64.4386 36.9688 63.6237C37.2498 62.7948 37.3903 61.8675 37.3903 60.8418ZM52.0291 53.5077V71H45.4537V48.1968H51.6287L52.0291 53.5077ZM58.8363 48.0282L58.731 54.161C58.45 54.1189 58.0847 54.0837 57.6351 54.0556C57.1854 54.0135 56.7991 53.9924 56.4759 53.9924C55.6329 53.9924 54.9023 54.0978 54.2841 54.3085C53.68 54.5052 53.1742 54.8003 52.7667 55.1937C52.3733 55.5871 52.0783 56.0789 51.8816 56.669C51.6849 57.245 51.5865 57.9124 51.5865 58.6711L50.3431 58.0599C50.3431 56.5566 50.4906 55.1797 50.7857 53.9292C51.0807 52.6787 51.5092 51.5969 52.0712 50.6836C52.6332 49.7563 53.3217 49.0398 54.1366 48.534C54.9515 48.0282 55.8788 47.7753 56.9185 47.7753C57.2557 47.7753 57.5999 47.7964 57.9512 47.8385C58.3024 47.8807 58.5975 47.9439 58.8363 48.0282Z" fill="black"/>
</g>
<defs>
<clipPath id="clip0_27_5">
<rect width="140" height="74" fill="white"/>
</clipPath>
</defs>
</svg>
